<svg width="20" height="18" viewBox="0 0 20 18" fill="none" xmlns="http://www.w3.org/2000/svg">
<path fill-rule="evenodd" clip-rule="evenodd" d="M2.5 7C2.5 3.06015 5.93474 0 10 0C14.0653 0 17.5 3.06015 17.5 7C17.5 7.55228 17.0523 8 16.5 8H3.5C2.94772 8 2.5 7.55228 2.5 7ZM15.3884 6C14.8835 3.76334 12.7197 2 10 2C7.28035 2 5.1165 3.76334 4.61162 6H15.3884Z" fill="white"/>
<path d="M0 10.5C0 9.94771 0.447715 9.5 1 9.5H19C19.5523 9.5 20 9.94771 20 10.5C20 11.0523 19.5523 11.5 19 11.5H1C0.447715 11.5 0 11.0523 0 10.5Z" fill="white"/>
<path fill-rule="evenodd" clip-rule="evenodd" d="M3.5 13C2.94772 13 2.5 13.4477 2.5 14V15C2.5 16.6569 3.84315 18 5.5 18H14.5C16.1569 18 17.5 16.6569 17.5 15V14C17.5 13.4477 17.0523 13 16.5 13H3.5ZM5.5 16C4.94772 16 4.5 15.5523 4.5 15H15.5C15.5 15.5523 15.0523 16 14.5 16H5.5Z" fill="white"/>
</svg>
