<svg width="41" height="41" viewBox="0 0 41 41" fill="none" xmlns="http://www.w3.org/2000/svg">
<path d="M20.5 0C9.17848 0 0 9.18016 0 20.5038C0 29.9286 6.3571 37.8659 15.0163 40.2645L15.1634 24.624H10.9043V19.5596H15.1634V17.6458C15.1634 11.0054 18.6586 8.58426 22.9192 8.58426C25.4314 8.58426 28.652 8.66231 28.652 8.66231L28.64 14.0494C28.64 14.0494 26.1413 13.9864 24.4484 13.9864C22.7556 13.9864 21.2264 14.887 21.2264 18.3198V19.5581H28.709L27.777 24.594L21.2264 24.624L21.0733 40.9985C32.1307 40.6953 41.0015 31.6352 41.0015 20.5023C41 9.18016 31.8215 0 20.5 0Z" fill="#F5F5F5" fill-opacity="0.7"/>
</svg>
