<svg width="1440" height="1440" viewBox="0 0 1440 1440" fill="none" xmlns="http://www.w3.org/2000/svg">
<g clip-path="url(#clip0_10_3)">
<rect width="1440" height="1440" fill="#0F102E"/>
<g filter="url(#filter0_f_10_3)">
<path d="M661.461 761.174C664.477 1028.11 881.919 1242.07 1147.13 1239.07C1412.35 1236.08 1624.9 1017.26 1621.88 750.323C1618.87 483.391 1401.42 269.429 1136.21 272.425C870.998 275.422 658.445 494.242 661.461 761.174Z" fill="#2C2D83"/>
</g>
<g filter="url(#filter1_f_10_3)">
<path d="M738.81 760.446C741.34 984.383 923.759 1163.88 1146.25 1161.37C1368.75 1158.85 1547.07 975.28 1544.54 751.342C1542.01 527.406 1359.59 347.906 1137.09 350.42C914.596 352.934 736.28 536.509 738.81 760.446Z" fill="#2C2D83"/>
</g>
<g filter="url(#filter2_f_10_3)">
<path d="M838.701 759.29C840.635 930.486 977.202 1067.74 1143.73 1065.86C1310.26 1063.98 1443.69 923.672 1441.76 752.477C1439.82 581.282 1303.26 444.026 1136.73 445.907C970.198 447.789 836.767 588.095 838.701 759.29Z" fill="#67235B"/>
</g>
<g filter="url(#filter3_f_10_3)">
<path d="M945.1 757.884C946.313 865.229 1034.32 951.266 1141.66 950.053C1249.01 948.84 1335.04 860.837 1333.83 753.492C1332.62 646.148 1244.61 560.111 1137.27 561.323C1029.92 562.536 943.888 650.539 945.1 757.884Z" fill="#BD1521"/>
</g>
<g filter="url(#filter4_f_10_3)">
<path d="M1822.18 987.498C1818.09 983.656 1804.05 967.665 1776.81 962.213C1749.56 956.762 1722.24 929.47 1705 906.435C1687.77 883.4 1692.86 786.243 1687.69 746.386C1682.51 706.53 1670.11 644.902 1652.43 599.802C1648.86 590.716 1637.67 575.919 1632.2 572.856C1619.09 565.501 1600.51 566.782 1583.97 566.159C1571.34 565.691 1533.55 606.638 1522.82 617.351C1499.26 640.887 1482.12 667.487 1474.03 679.948C1464.92 694 1459.85 704.644 1452.04 722.123C1449.8 727.107 1444.57 732.455 1442.22 735.743C1439.5 739.533 1438.56 742.475 1435.1 740.052C1426.7 734.151 1411.03 722.521 1411.03 722.521C1411.03 722.521 1389.9 697.911 1358.9 679.151C1353.86 676.088 1354 665.999 1351.83 654.403C1349.25 640.593 1342.27 624.862 1341.68 613.163C1341.06 600.373 1333.87 527.894 1336.31 523.222C1339.36 517.389 1343.47 498.75 1344.8 491.222C1346.84 479.731 1345.3 458.479 1346.9 456.592C1348.56 454.637 1375.07 445.361 1381.19 444.357C1399.96 441.276 1424.85 428.227 1446.29 414.226C1461.18 404.5 1469.94 394.307 1492.49 386.675C1556.66 364.955 1584.24 348.255 1618.17 314.352C1656.29 276.261 1659.35 278.285 1683.77 266.292C1708.21 254.299 1695.12 271.467 1715.27 264.267C1727.29 259.975 1736.09 261.291 1741.06 256.324C1747.33 250.059 1745.55 249.124 1748.87 246.407C1752.21 243.69 1752.32 241.285 1748.65 238.55C1747.09 237.373 1745.98 236.768 1743.5 237.2C1741.03 237.633 1743.28 237.235 1744.13 231.956C1744.97 226.678 1745.27 226.972 1745.03 224.463C1744.78 221.953 1746.62 223.009 1747.4 221.157C1748.09 219.513 1747.76 217.073 1747.76 214.633C1747.76 214.287 1747.24 212.746 1747.49 210.133C1747.75 207.52 1747.36 207.087 1746.05 204.612C1744.73 202.138 1744.65 201.913 1744.21 197.188C1743.92 193.883 1742.27 191.91 1736.32 190.906C1726.96 189.348 1723.81 186.389 1717.27 191.719C1709.39 198.123 1701.71 214.944 1648.25 244.157C1586.08 278.13 1537.78 289.863 1505.46 303.189C1493.39 308.156 1466.74 327.003 1436.9 344.084C1425.23 350.764 1410.38 355.437 1399.41 360.646C1383.97 367.949 1383.99 373.903 1368.16 374.595C1353.22 375.253 1323.83 373.678 1310.68 377.935C1310.68 377.935 1297.09 383.404 1278.68 395.847C1275.77 385.238 1272.64 374.508 1271.96 368.365C1269.99 350.107 1265.22 335.967 1254.92 331.727C1246.69 328.353 1236.35 329.685 1236.35 329.685C1236.35 329.685 1238 314.421 1236.49 310.233C1234.71 305.283 1232.98 299.538 1225.88 293.082C1225.88 293.082 1209.34 278.493 1195.85 270.117C1171.79 255.181 1124.82 250.301 1089.7 291.767C1081.63 301.303 1078 309.177 1075.69 317.917C1073.79 325.099 1076.04 326.12 1075.59 330.827C1075.21 334.86 1065.46 343.028 1064.75 347.943C1064.35 350.695 1072.85 358.05 1072.85 358.05C1072.85 358.05 1070.84 363.969 1070.58 369.49C1070.36 374.249 1071.88 378.472 1071.88 380.946C1071.88 398.72 1073.13 396.193 1075.78 412.444L1080.97 422.395C1090.85 429.594 1098.24 425.977 1115.85 427.535C1117.43 427.673 1121.14 429.612 1122.57 432.433C1124.04 435.306 1124.27 440.411 1125.08 444.184C1126.66 451.487 1128.03 457.371 1128.03 457.371C1128.03 457.371 1118.85 466.682 1112.27 465.176C1101.31 462.684 1089.08 454.152 1076.51 458.773C1065.08 462.961 1048.64 472.808 1039.57 481.894C1027.44 494.06 1024.1 505.535 1021.05 506.798C995.491 517.476 981.689 538.053 978.467 543.366C978.97 541.722 978.848 538.295 974.207 531.944C961.807 515.001 961.513 496.483 961.132 488.661C959.85 461.559 952.802 445.707 961.115 416.701C969.427 387.696 974.675 400.122 976.961 386.744C978.866 375.581 973.099 376.204 968.492 371.168C980.251 356.596 987.265 338.321 987.265 318.453C987.265 273.232 950.966 236.179 904.83 232.649C904.449 226.142 904.033 220.24 903.704 218.129C900.085 194.886 893.989 162.697 892.361 157.003C890.733 151.309 885.416 111.73 882.922 92.0003C880.429 72.2711 880.723 44.4772 879.528 35.028C878.333 25.5614 876.826 6.45525 876.826 0L854.884 0.98646C861.223 42.7293 864.305 58.7376 867.232 77.9476C870.159 97.1576 874.506 127.392 875.337 146.273C876.186 165.154 881.173 189.4 882.368 215.948C882.663 222.507 883.096 228.339 883.58 233.427C841.203 240.004 810.168 275.638 808.09 318.505C805.925 363.415 843.021 405.937 894.872 404.691C895.617 408.827 896.638 413.309 897.989 418.207C903.86 439.39 910.961 427.379 913.022 436.811C915.083 446.243 905.592 516.455 905.592 553.404C905.592 590.353 903.843 595.891 922.91 635.591C930.201 650.786 942.168 648.502 956.006 645.439C964.111 643.639 997.379 628.167 1024.31 610.532C1051.24 592.897 1068.78 572.683 1068.78 572.683C1068.78 572.683 1073.63 580.765 1084.65 604.319C1089.18 614.028 1078.22 628.6 1091.11 641.493C1103.07 653.452 1107.71 679.238 1113.57 689.622C1126.12 711.895 1165.75 759.522 1209.32 807.997C1232.73 834.06 1203.43 809.347 1245.76 882.154C1262.5 910.969 1266.11 912.717 1279.23 939.127C1292.36 965.553 1284.46 966.782 1299.06 981.354C1349.49 1031.75 1370.22 1054.16 1394.11 1080.12C1417.99 1106.08 1450.98 1149.57 1468.82 1179.62C1474.98 1190.02 1470.57 1221.93 1485.06 1258.05C1499.56 1294.18 1519.01 1312.84 1562.65 1365.17C1583.33 1389.96 1599.81 1412.99 1623.56 1443.69C1647.3 1474.39 1635.54 1476.57 1649.22 1498.93C1662.9 1521.29 1690.14 1507.62 1704.4 1510.65C1718.65 1513.68 1739.33 1503.55 1770.97 1476.42C1802.61 1449.28 1779.99 1460.31 1780.68 1450.2C1781.38 1440.09 1740.78 1441.63 1690.35 1417.16C1639.92 1392.69 1624.89 1300.33 1597.7 1250.33C1570.51 1200.33 1555.01 1188.51 1539.2 1138.79C1523.39 1089.07 1522.75 1084.02 1488.28 1030.97C1453.82 977.927 1472.25 993.347 1461.91 968.115C1451.2 941.982 1446.08 934.264 1446.08 934.264C1446.08 934.264 1469.51 918.273 1494.26 899.443C1519.01 880.631 1539.56 844.634 1560.81 814.106C1582.04 783.578 1585.11 763.139 1585.11 763.139C1585.11 763.139 1589.4 785.256 1600.68 809.503C1611.95 833.749 1618.38 860.712 1629.93 885.598C1635.64 897.886 1636.91 923.897 1637.32 937.258C1637.74 950.601 1636.91 946.378 1631.49 942.571C1626.07 938.781 1626.02 944.665 1624.53 949.234C1623.04 953.802 1631.21 959.254 1636.01 967.63C1640.82 976.007 1628.18 981.095 1636.23 1001.71C1644.29 1022.32 1681.16 1005.18 1697.26 1005.18C1697.26 1005.18 1731.66 1010.9 1776.15 1013.92C1820.63 1016.97 1824.39 1011.64 1831.03 1005.03C1837.64 998.418 1826.33 991.271 1822.23 987.429L1822.18 987.498ZM828.439 321.534C828.439 289.102 853.516 259.75 886.369 254.143C886.611 255.493 886.767 256.237 886.767 256.237L906.094 255.718C906.094 255.718 906.06 254.956 905.99 253.676C940.229 257.656 966.102 285.952 966.102 319.371C966.102 332.108 961.963 344.067 955.088 354.139C954.62 353.481 954.118 352.754 953.598 351.889C948.264 343.132 945.147 344.724 934.825 351.283C924.486 357.842 928.608 356.06 920.018 355.437C911.428 354.814 917.438 359.123 906.943 365.838C896.448 372.553 896.448 367.794 894.456 375.391C893.885 377.606 893.452 380.375 893.261 383.698C857.084 381.76 828.439 356.198 828.439 321.534ZM1211.59 410.644C1211.59 410.644 1235.96 396.695 1238.19 388.925C1238.19 388.925 1240.56 408.083 1242.73 420.214C1231.71 423.278 1213.96 425.735 1211.59 410.644Z" fill="#141438"/>
</g>
</g>
<defs>
<filter id="filter0_f_10_3" x="121.429" y="-267.606" width="2040.48" height="2046.71" filterUnits="userSpaceOnUse" color-interpolation-filters="sRGB">
<feFlood flood-opacity="0" result="BackgroundImageFix"/>
<feBlend mode="normal" in="SourceGraphic" in2="BackgroundImageFix" result="shape"/>
<feGaussianBlur stdDeviation="270" result="effect1_foregroundBlur_10_3"/>
</filter>
<filter id="filter1_f_10_3" x="198.783" y="-189.606" width="1885.78" height="1891" filterUnits="userSpaceOnUse" color-interpolation-filters="sRGB">
<feFlood flood-opacity="0" result="BackgroundImageFix"/>
<feBlend mode="normal" in="SourceGraphic" in2="BackgroundImageFix" result="shape"/>
<feGaussianBlur stdDeviation="270" result="effect1_foregroundBlur_10_3"/>
</filter>
<filter id="filter2_f_10_3" x="298.681" y="-94.1118" width="1683.1" height="1699.99" filterUnits="userSpaceOnUse" color-interpolation-filters="sRGB">
<feFlood flood-opacity="0" result="BackgroundImageFix"/>
<feBlend mode="normal" in="SourceGraphic" in2="BackgroundImageFix" result="shape"/>
<feGaussianBlur stdDeviation="270" result="effect1_foregroundBlur_10_3"/>
</filter>
<filter id="filter3_f_10_3" x="405.088" y="21.3107" width="1468.75" height="1468.76" filterUnits="userSpaceOnUse" color-interpolation-filters="sRGB">
<feFlood flood-opacity="0" result="BackgroundImageFix"/>
<feBlend mode="normal" in="SourceGraphic" in2="BackgroundImageFix" result="shape"/>
<feGaussianBlur stdDeviation="270" result="effect1_foregroundBlur_10_3"/>
</filter>
<filter id="filter4_f_10_3" x="804" y="-4" width="1033.06" height="1520.06" filterUnits="userSpaceOnUse" color-interpolation-filters="sRGB">
<feFlood flood-opacity="0" result="BackgroundImageFix"/>
<feBlend mode="normal" in="SourceGraphic" in2="BackgroundImageFix" result="shape"/>
<feGaussianBlur stdDeviation="2" result="effect1_foregroundBlur_10_3"/>
</filter>
<clipPath id="clip0_10_3">
<rect width="1440" height="1440" fill="white"/>
</clipPath>
</defs>
</svg>
