<svg width="1440" height="2000" viewBox="0 0 1440 2000" fill="none" xmlns="http://www.w3.org/2000/svg">
<g clip-path="url(#clip0_10_3)">
<rect width="1440" height="2000" fill="#0F102E"/>
<g filter="url(#filter0_f_10_3)">
<path d="M702.461 761.174C705.477 1028.11 922.919 1242.07 1188.13 1239.07C1453.35 1236.08 1665.9 1017.26 1662.88 750.323C1659.87 483.391 1442.42 269.429 1177.21 272.425C911.998 275.422 699.445 494.242 702.461 761.174Z" fill="#2C2D83"/>
</g>
<g filter="url(#filter1_f_10_3)">
<path d="M779.81 760.446C782.34 984.383 964.759 1163.88 1187.25 1161.37C1409.75 1158.85 1588.07 975.28 1585.54 751.342C1583.01 527.406 1400.59 347.906 1178.09 350.42C955.596 352.934 777.28 536.509 779.81 760.446Z" fill="#2C2D83"/>
</g>
<g filter="url(#filter2_f_10_3)">
<path d="M879.701 759.29C881.635 930.486 1018.2 1067.74 1184.73 1065.86C1351.26 1063.98 1484.69 923.672 1482.76 752.477C1480.82 581.282 1344.26 444.026 1177.73 445.907C1011.2 447.789 877.767 588.095 879.701 759.29Z" fill="#67235B"/>
</g>
<g filter="url(#filter3_f_10_3)">
<path d="M986.1 757.884C987.313 865.229 1075.32 951.266 1182.66 950.053C1290.01 948.84 1376.04 860.837 1374.83 753.492C1373.62 646.148 1285.61 560.111 1178.27 561.323C1070.92 562.536 984.888 650.539 986.1 757.884Z" fill="#BD1521"/>
</g>
<g filter="url(#filter4_f_10_3)">
<path d="M1863.18 987.498C1859.09 983.656 1845.05 967.665 1817.81 962.213C1790.56 956.762 1763.24 929.47 1746 906.435C1728.77 883.4 1733.86 786.243 1728.69 746.386C1723.51 706.53 1711.11 644.902 1693.43 599.802C1689.86 590.716 1678.67 575.919 1673.2 572.856C1660.09 565.501 1641.51 566.782 1624.97 566.159C1612.34 565.691 1574.55 606.638 1563.82 617.351C1540.26 640.887 1523.12 667.487 1515.03 679.948C1505.92 694 1500.85 704.644 1493.04 722.123C1490.8 727.107 1485.57 732.455 1483.22 735.743C1480.5 739.533 1479.56 742.475 1476.1 740.052C1467.7 734.151 1452.03 722.521 1452.03 722.521C1452.03 722.521 1430.9 697.911 1399.9 679.151C1394.86 676.088 1395 665.999 1392.83 654.403C1390.25 640.593 1383.27 624.862 1382.68 613.163C1382.06 600.373 1374.87 527.894 1377.31 523.222C1380.36 517.389 1384.47 498.75 1385.8 491.222C1387.84 479.731 1386.3 458.479 1387.9 456.592C1389.56 454.637 1416.07 445.361 1422.19 444.357C1440.96 441.276 1465.85 428.227 1487.29 414.226C1502.18 404.5 1510.94 394.307 1533.49 386.675C1597.66 364.955 1625.24 348.255 1659.17 314.352C1697.29 276.261 1700.35 278.285 1724.77 266.292C1749.21 254.299 1736.12 271.467 1756.27 264.267C1768.29 259.975 1777.09 261.291 1782.06 256.324C1788.33 250.059 1786.55 249.124 1789.87 246.407C1793.21 243.69 1793.32 241.285 1789.65 238.55C1788.09 237.373 1786.98 236.768 1784.5 237.2C1782.03 237.633 1784.28 237.235 1785.13 231.956C1785.97 226.678 1786.27 226.972 1786.03 224.463C1785.78 221.953 1787.62 223.009 1788.4 221.157C1789.09 219.513 1788.76 217.073 1788.76 214.633C1788.76 214.287 1788.24 212.746 1788.49 210.133C1788.75 207.52 1788.36 207.087 1787.05 204.612C1785.73 202.138 1785.65 201.913 1785.21 197.188C1784.92 193.883 1783.27 191.91 1777.32 190.906C1767.96 189.348 1764.81 186.389 1758.27 191.719C1750.39 198.123 1742.71 214.944 1689.25 244.157C1627.08 278.13 1578.78 289.863 1546.46 303.189C1534.39 308.156 1507.74 327.003 1477.9 344.084C1466.23 350.764 1451.38 355.437 1440.41 360.646C1424.97 367.949 1424.99 373.903 1409.16 374.595C1394.22 375.253 1364.83 373.678 1351.68 377.935C1351.68 377.935 1338.09 383.404 1319.68 395.847C1316.77 385.238 1313.64 374.508 1312.96 368.365C1310.99 350.107 1306.22 335.967 1295.92 331.727C1287.69 328.353 1277.35 329.685 1277.35 329.685C1277.35 329.685 1279 314.421 1277.49 310.233C1275.71 305.283 1273.98 299.538 1266.88 293.082C1266.88 293.082 1250.34 278.493 1236.85 270.117C1212.79 255.181 1165.82 250.301 1130.7 291.767C1122.63 301.303 1119 309.177 1116.69 317.917C1114.79 325.099 1117.04 326.12 1116.59 330.827C1116.21 334.86 1106.46 343.028 1105.75 347.943C1105.35 350.695 1113.85 358.05 1113.85 358.05C1113.85 358.05 1111.84 363.969 1111.58 369.49C1111.36 374.249 1112.88 378.472 1112.88 380.946C1112.88 398.72 1114.13 396.193 1116.78 412.444L1121.97 422.395C1131.85 429.594 1139.24 425.977 1156.85 427.535C1158.43 427.673 1162.14 429.612 1163.57 432.433C1165.04 435.306 1165.27 440.411 1166.08 444.184C1167.66 451.487 1169.03 457.371 1169.03 457.371C1169.03 457.371 1159.85 466.682 1153.27 465.176C1142.31 462.684 1130.08 454.152 1117.51 458.773C1106.08 462.961 1089.64 472.808 1080.57 481.894C1068.44 494.06 1065.1 505.535 1062.05 506.798C1036.49 517.476 1022.69 538.053 1019.47 543.366C1019.97 541.722 1019.85 538.295 1015.21 531.944C1002.81 515.001 1002.51 496.483 1002.13 488.661C1000.85 461.559 993.802 445.707 1002.11 416.701C1010.43 387.696 1015.67 400.122 1017.96 386.744C1019.87 375.581 1014.1 376.204 1009.49 371.168C1021.25 356.596 1028.26 338.321 1028.26 318.453C1028.26 273.232 991.966 236.179 945.83 232.649C945.449 226.142 945.033 220.24 944.704 218.129C941.085 194.886 934.989 162.697 933.361 157.003C931.733 151.309 926.416 111.73 923.922 92.0003C921.429 72.2711 921.723 44.4772 920.528 35.028C919.333 25.5614 917.826 6.45525 917.826 0L895.884 0.98646C902.223 42.7293 905.305 58.7376 908.232 77.9476C911.159 97.1576 915.506 127.392 916.337 146.273C917.186 165.154 922.173 189.4 923.368 215.948C923.663 222.507 924.096 228.339 924.58 233.427C882.203 240.004 851.168 275.638 849.09 318.505C846.925 363.415 884.021 405.937 935.872 404.691C936.617 408.827 937.638 413.309 938.989 418.207C944.86 439.39 951.961 427.379 954.022 436.811C956.083 446.243 946.592 516.455 946.592 553.404C946.592 590.353 944.843 595.891 963.91 635.591C971.201 650.786 983.168 648.502 997.006 645.439C1005.11 643.639 1038.38 628.167 1065.31 610.532C1092.24 592.897 1109.78 572.683 1109.78 572.683C1109.78 572.683 1114.63 580.765 1125.65 604.319C1130.18 614.028 1119.22 628.6 1132.11 641.493C1144.07 653.452 1148.71 679.238 1154.57 689.622C1167.12 711.895 1206.75 759.522 1250.32 807.997C1273.73 834.06 1244.43 809.347 1286.76 882.154C1303.5 910.969 1307.11 912.717 1320.23 939.127C1333.36 965.553 1325.46 966.782 1340.06 981.354C1390.49 1031.75 1411.22 1054.16 1435.11 1080.12C1458.99 1106.08 1491.98 1149.57 1509.82 1179.62C1515.98 1190.02 1511.57 1221.93 1526.06 1258.05C1540.56 1294.18 1560.01 1312.84 1603.65 1365.17C1624.33 1389.96 1640.81 1412.99 1664.56 1443.69C1688.3 1474.39 1676.54 1476.57 1690.22 1498.93C1703.9 1521.29 1731.14 1507.62 1745.4 1510.65C1759.65 1513.68 1780.33 1503.55 1811.97 1476.42C1843.61 1449.28 1820.99 1460.31 1821.68 1450.2C1822.38 1440.09 1781.78 1441.63 1731.35 1417.16C1680.92 1392.69 1665.89 1300.33 1638.7 1250.33C1611.51 1200.33 1596.01 1188.51 1580.2 1138.79C1564.39 1089.07 1563.75 1084.02 1529.28 1030.97C1494.82 977.927 1513.25 993.347 1502.91 968.115C1492.2 941.982 1487.08 934.264 1487.08 934.264C1487.08 934.264 1510.51 918.273 1535.26 899.443C1560.01 880.631 1580.56 844.634 1601.81 814.106C1623.04 783.578 1626.11 763.139 1626.11 763.139C1626.11 763.139 1630.4 785.256 1641.68 809.503C1652.95 833.749 1659.38 860.712 1670.93 885.598C1676.64 897.886 1677.91 923.897 1678.32 937.258C1678.74 950.601 1677.91 946.378 1672.49 942.571C1667.07 938.781 1667.02 944.665 1665.53 949.234C1664.04 953.802 1672.21 959.254 1677.01 967.63C1681.82 976.007 1669.18 981.095 1677.23 1001.71C1685.29 1022.32 1722.16 1005.18 1738.26 1005.18C1738.26 1005.18 1772.66 1010.9 1817.15 1013.92C1861.63 1016.97 1865.39 1011.64 1872.03 1005.03C1878.64 998.418 1867.33 991.271 1863.23 987.429L1863.18 987.498ZM869.439 321.534C869.439 289.102 894.516 259.75 927.369 254.143C927.611 255.493 927.767 256.237 927.767 256.237L947.094 255.718C947.094 255.718 947.06 254.956 946.99 253.676C981.229 257.656 1007.1 285.952 1007.1 319.371C1007.1 332.108 1002.96 344.067 996.088 354.139C995.62 353.481 995.118 352.754 994.598 351.889C989.264 343.132 986.147 344.724 975.825 351.283C965.486 357.842 969.608 356.06 961.018 355.437C952.428 354.814 958.438 359.123 947.943 365.838C937.448 372.553 937.448 367.794 935.456 375.391C934.885 377.606 934.452 380.375 934.261 383.698C898.084 381.76 869.439 356.198 869.439 321.534ZM1252.59 410.644C1252.59 410.644 1276.96 396.695 1279.19 388.925C1279.19 388.925 1281.56 408.083 1283.73 420.214C1272.71 423.278 1254.96 425.735 1252.59 410.644Z" fill="#141438"/>
</g>
</g>
<defs>
<filter id="filter0_f_10_3" x="162.429" y="-267.606" width="2040.48" height="2046.71" filterUnits="userSpaceOnUse" color-interpolation-filters="sRGB">
<feFlood flood-opacity="0" result="BackgroundImageFix"/>
<feBlend mode="normal" in="SourceGraphic" in2="BackgroundImageFix" result="shape"/>
<feGaussianBlur stdDeviation="270" result="effect1_foregroundBlur_10_3"/>
</filter>
<filter id="filter1_f_10_3" x="239.783" y="-189.606" width="1885.78" height="1891" filterUnits="userSpaceOnUse" color-interpolation-filters="sRGB">
<feFlood flood-opacity="0" result="BackgroundImageFix"/>
<feBlend mode="normal" in="SourceGraphic" in2="BackgroundImageFix" result="shape"/>
<feGaussianBlur stdDeviation="270" result="effect1_foregroundBlur_10_3"/>
</filter>
<filter id="filter2_f_10_3" x="339.681" y="-94.1118" width="1683.1" height="1699.99" filterUnits="userSpaceOnUse" color-interpolation-filters="sRGB">
<feFlood flood-opacity="0" result="BackgroundImageFix"/>
<feBlend mode="normal" in="SourceGraphic" in2="BackgroundImageFix" result="shape"/>
<feGaussianBlur stdDeviation="270" result="effect1_foregroundBlur_10_3"/>
</filter>
<filter id="filter3_f_10_3" x="446.088" y="21.3107" width="1468.75" height="1468.76" filterUnits="userSpaceOnUse" color-interpolation-filters="sRGB">
<feFlood flood-opacity="0" result="BackgroundImageFix"/>
<feBlend mode="normal" in="SourceGraphic" in2="BackgroundImageFix" result="shape"/>
<feGaussianBlur stdDeviation="270" result="effect1_foregroundBlur_10_3"/>
</filter>
<filter id="filter4_f_10_3" x="845" y="-4" width="1033.06" height="1520.06" filterUnits="userSpaceOnUse" color-interpolation-filters="sRGB">
<feFlood flood-opacity="0" result="BackgroundImageFix"/>
<feBlend mode="normal" in="SourceGraphic" in2="BackgroundImageFix" result="shape"/>
<feGaussianBlur stdDeviation="2" result="effect1_foregroundBlur_10_3"/>
</filter>
<clipPath id="clip0_10_3">
<rect width="1440" height="2000" fill="white"/>
</clipPath>
</defs>
</svg>
