<svg width="20" height="10" viewBox="0 0 20 10" fill="none" xmlns="http://www.w3.org/2000/svg">
<path fill-rule="evenodd" clip-rule="evenodd" d="M4.75 0C2.06683 0 0 2.30035 0 5C0 7.69965 2.06683 10 4.75 10C6.25057 10 7.44909 8.93781 8.26316 8.05143C8.69537 7.58083 9.08657 7.08216 9.41448 6.66344C9.65014 6.36253 9.84049 6.12007 10 5.93383C10.1595 6.12007 10.3499 6.36253 10.5855 6.66344C10.9134 7.08216 11.3046 7.58083 11.7368 8.05143C12.5509 8.93781 13.7494 10 15.25 10C17.9332 10 20 7.69965 20 5C20 2.30035 17.9332 0 15.25 0C13.7494 0 12.5509 1.06219 11.7368 1.94858C11.3046 2.41917 10.9134 2.91784 10.5855 3.33656C10.3499 3.63747 10.1595 3.87993 10 4.06617C9.84049 3.87993 9.65014 3.63747 9.41448 3.33656C9.08657 2.91784 8.69537 2.41917 8.26316 1.94857C7.44909 1.06219 6.25057 0 4.75 0ZM2 5C2 3.28137 3.29103 2 4.75 2C5.3205 2 5.99698 2.43781 6.79014 3.30143C7.16155 3.70583 7.50702 4.14466 7.83988 4.56969L7.88525 4.62764C7.98173 4.75091 8.08019 4.8767 8.17877 5C8.08016 5.12334 7.98181 5.24899 7.8853 5.37229L7.83988 5.43031C7.50702 5.85534 7.16155 6.29417 6.79014 6.69857C5.99698 7.56219 5.3205 8 4.75 8C3.29103 8 2 6.71863 2 5ZM18 5C18 6.71863 16.709 8 15.25 8C14.6795 8 14.003 7.56219 13.2099 6.69857C12.8384 6.29417 12.493 5.85534 12.1601 5.43031L12.1148 5.37236C12.0182 5.24904 11.9199 5.12336 11.8212 5C11.9199 4.87664 12.0182 4.75096 12.1148 4.62764L12.1601 4.56969C12.493 4.14466 12.8384 3.70583 13.2099 3.30143C14.003 2.43781 14.6795 2 15.25 2C16.709 2 18 3.28137 18 5Z" fill="white"/>
</svg>
