<svg width="25" height="25" viewBox="0 0 25 25" fill="none" xmlns="http://www.w3.org/2000/svg">
<path fill-rule="evenodd" clip-rule="evenodd" d="M7.8125 0H17.1875C21.5016 0 25 3.49844 25 7.8125V17.1875C25 21.5016 21.5016 25 17.1875 25H7.8125C3.49844 25 0 21.5016 0 17.1875V7.8125C0 3.49844 3.49844 0 7.8125 0ZM17.1873 22.6562C20.2029 22.6562 22.6561 20.2031 22.6561 17.1875V7.8125C22.6561 4.79688 20.2029 2.34375 17.1873 2.34375H7.81231C4.79668 2.34375 2.34356 4.79688 2.34356 7.8125V17.1875C2.34356 20.2031 4.79668 22.6562 7.81231 22.6562H17.1873Z" fill="white"/>
<path fill-rule="evenodd" clip-rule="evenodd" d="M6.25 12.5C6.25 9.04844 9.04844 6.25 12.5 6.25C15.9516 6.25 18.75 9.04844 18.75 12.5C18.75 15.9516 15.9516 18.75 12.5 18.75C9.04844 18.75 6.25 15.9516 6.25 12.5ZM8.59337 12.5C8.59337 14.6531 10.3465 16.4062 12.4996 16.4062C14.6527 16.4062 16.4059 14.6531 16.4059 12.5C16.4059 10.3453 14.6527 8.59375 12.4996 8.59375C10.3465 8.59375 8.59337 10.3453 8.59337 12.5Z" fill="white"/>
<ellipse cx="19.219" cy="5.78105" rx="0.832812" ry="0.832812" fill="white"/>
</svg>
