<svg width="40" height="40" viewBox="0 0 40 40" fill="none" xmlns="http://www.w3.org/2000/svg">
<path d="M20.0002 13.3501C16.3348 13.3501 13.3501 16.3326 13.3501 20.0002C13.3501 23.6678 16.3326 26.6503 20.0002 26.6503C23.6678 26.6503 26.6503 23.6678 26.6503 20.0002C26.6503 16.3326 23.6678 13.3501 20.0002 13.3501Z" fill="#F5F5F5" fill-opacity="0.7"/>
<path d="M29.6931 0H10.3069C4.62287 0 0 4.62287 0 10.3069V29.6931C0 35.3771 4.62287 40 10.3069 40H29.6931C35.3771 40 40 35.3771 40 29.6931V10.3069C40 4.62287 35.3771 0 29.6931 0ZM20 29.8919C14.5451 29.8919 10.1081 25.4549 10.1081 20C10.1081 14.5451 14.5451 10.1081 20 10.1081C25.4549 10.1081 29.8919 14.5451 29.8919 20C29.8919 25.4549 25.4549 29.8919 20 29.8919ZM30.7543 11.729C29.062 11.729 27.6918 10.3566 27.6918 8.66652C27.6918 6.97644 29.0642 5.60406 30.7543 5.60406C32.4444 5.60406 33.8167 6.97644 33.8167 8.66652C33.8167 10.3566 32.4444 11.729 30.7543 11.729Z" fill="#F5F5F5" fill-opacity="0.7"/>
</svg>
