<svg width="14" height="20" viewBox="0 0 14 20" fill="none" xmlns="http://www.w3.org/2000/svg">
<path fill-rule="evenodd" clip-rule="evenodd" d="M7 0C3.13401 0 0 3.13401 0 7C0 9.35925 1.16715 11.4459 2.95554 12.714L2.14172 18.0039C1.96737 19.1372 3.07738 20.0391 4.15096 19.6365L7.00024 18.568L9.84952 19.6365C10.9231 20.0391 12.0331 19.1371 11.8588 18.0039L11.0449 12.7137C12.833 11.4456 14 9.35906 14 7C14 3.13401 10.866 0 7 0ZM2 7C2 4.23858 4.23858 2 7 2C9.76142 2 12 4.23858 12 7C12 9.76142 9.76142 12 7 12C4.23858 12 2 9.76142 2 7ZM9.16667 13.6582C8.48444 13.8801 7.75622 14 7 14C6.24395 14 5.51589 13.8801 4.83379 13.6584L4.24832 17.464L6.29799 16.6953C6.75076 16.5255 7.24972 16.5255 7.70249 16.6953L9.75216 17.464L9.16667 13.6582Z" fill="white"/>
</svg>
