<svg width="21" height="20" viewBox="0 0 21 20" fill="none" xmlns="http://www.w3.org/2000/svg">
<path d="M20.1339 2.13388C20.622 1.64573 20.622 0.854272 20.1339 0.366117C19.6457 -0.122039 18.8543 -0.122039 18.3661 0.366117L10.5 8.23223L2.63388 0.366117C2.14573 -0.122039 1.35427 -0.122039 0.866117 0.366117C0.377961 0.854272 0.377961 1.64573 0.866117 2.13388L8.73223 10L0.866117 17.8661C0.377961 18.3543 0.377961 19.1457 0.866117 19.6339C1.35427 20.122 2.14573 20.122 2.63388 19.6339L10.5 11.7678L18.3661 19.6339C18.8543 20.122 19.6457 20.122 20.1339 19.6339C20.622 19.1457 20.622 18.3543 20.1339 17.8661L12.2678 10L20.1339 2.13388Z" fill="white"/>
</svg>
