<svg width="16" height="20" viewBox="0 0 16 20" fill="none" xmlns="http://www.w3.org/2000/svg">
<path fill-rule="evenodd" clip-rule="evenodd" d="M15.1959 1.98053C15.7374 1.87222 16.0887 1.34539 15.9804 0.803833C15.872 0.262273 15.3452 -0.0889439 14.8037 0.019368L9.80365 1.01937C9.43649 1.0928 9.14111 1.3652 9.03825 1.72523L8.24547 4.49995L3.99027 4.49989C3.55611 4.49947 3.17654 4.49911 2.82175 4.58592C2.11479 4.75891 1.49483 5.18301 1.07736 5.7792C0.867861 6.07839 0.730627 6.43229 0.573656 6.83708L0.0680005 8.1375C-0.0516512 8.44518 -0.0117455 8.79208 0.174643 9.06455C0.361031 9.33702 0.669883 9.49995 1.00001 9.49995H2.09072L2.7746 16.6817C2.82709 17.2399 2.87262 17.7241 3.04399 18.1408C3.38636 18.9735 4.08455 19.6083 4.94587 19.8702C5.37699 20.0013 5.86334 20.0007 6.42397 20H9.57604C10.1367 20.0007 10.623 20.0013 11.0541 19.8702C11.9155 19.6083 12.6137 18.9735 12.956 18.1408C13.1274 17.7241 13.1729 17.2399 13.2254 16.6817L13.9093 9.49995H15C15.3301 9.49995 15.639 9.33702 15.8254 9.06455C16.0118 8.79208 16.0517 8.44518 15.932 8.1375L15.4264 6.83709C15.2694 6.43229 15.1321 6.0784 14.9226 5.7792C14.5052 5.18301 13.8852 4.75891 13.1783 4.58592C12.8235 4.49911 12.4439 4.49947 12.0097 4.49989L10.3255 4.49995L10.7938 2.86095L15.1959 1.98053ZM8.97758 6.49995C8.99274 6.50029 9.00787 6.50029 9.02295 6.49995H11.918C12.4963 6.49995 12.614 6.50685 12.7029 6.5286C12.9385 6.58627 13.1452 6.72763 13.2844 6.92636C13.3317 6.99392 13.3762 7.08761 13.5379 7.49995H2.46208C2.62382 7.08761 2.66836 6.99392 2.71566 6.92636C2.85481 6.72763 3.06147 6.58627 3.29712 6.5286C3.38602 6.50685 3.50367 6.49995 4.08206 6.49995H8.97758ZM4.75412 16.3706L4.09977 9.49995H11.9002L11.2459 16.3706C11.1744 17.1211 11.1488 17.277 11.1063 17.3802C10.9922 17.6578 10.7594 17.8694 10.4723 17.9567C10.3655 17.9892 10.2079 17.9999 9.454 17.9999H6.54601C5.79213 17.9999 5.63451 17.9892 5.52768 17.9567C5.24057 17.8694 5.00784 17.6578 4.89371 17.3802C4.85125 17.277 4.82559 17.1211 4.75412 16.3706Z" fill="white"/>
</svg>
